<?xml version="1.0" encoding="utf-8"?>
<!-- Generator: Adobe Illustrator 23.0.1, SVG Export Plug-In . SVG Version: 6.00 Build 0)  -->
<svg version="1.1" id="Layer_1" xmlns="http://www.w3.org/2000/svg" xmlns:xlink="http://www.w3.org/1999/xlink" x="0px" y="0px"
	 viewBox="0 0 512 512" style="enable-background:new 0 0 512 512;" xml:space="preserve">
<style type="text/css">
	.st0{fill-rule:evenodd;clip-rule:evenodd;fill:#1B1B1B;}
</style>
<path class="st0" d="M426,258.8C426,258.9,426,258.9,426,258.8L278.2,420.8c-5.8,6.5-13.7,10.1-22.2,10.1l0,0
	c-8.4,0-16.3-3.6-22.2-10.2L86,258.9c0,0,0,0,0,0c-40.1-40.7-40-106.7,0.2-147.3c40.2-40.5,105.5-40.6,145.9-0.3c0,0,0,0,0,0
	l23.9,21.3l23.9-21.3c0,0,0,0,0,0c40.3-40.3,105.7-40.2,145.8,0.3C466,152.2,466.1,218.2,426,258.8z M416.4,121.1
	c-35.1-35.4-92.2-35.4-127.3,0c-0.1,0.1-0.1,0.1-0.2,0.1s-0.1,0.1-0.1,0.2l-28.3,25.3c-0.4,0.3-0.8,0.5-1.2,0.7
	c-0.2,0.1-0.5,0.3-0.7,0.4c-0.8,0.3-1.7,0.5-2.5,0.5c0,0,0,0,0,0l0,0c-0.9,0-1.7-0.2-2.5-0.5c-0.3-0.1-0.5-0.3-0.7-0.4
	c-0.4-0.2-0.8-0.4-1.2-0.7l-28.3-25.3c-0.1,0-0.1-0.1-0.1-0.2c0-0.1-0.1-0.1-0.2-0.1c-35.1-35.4-92.2-35.4-127.3,0
	c-35.1,35.4-35.1,93.1,0,128.5c0,0,0,0.1,0.1,0.1c0,0,0.1,0,0.1,0.1l147.8,161.9c3.4,3.8,7.7,5.8,12.3,5.8l0,0c4.6,0,9-2,12.3-5.7
	l147.9-162c0,0,0.1,0,0.1-0.1c0,0,0-0.1,0.1-0.1C451.4,214.1,451.4,156.5,416.4,121.1z"/>
</svg>
