<?xml version="1.0" encoding="utf-8"?>
<!-- Generator: Adobe Illustrator 22.1.0, SVG Export Plug-In . SVG Version: 6.00 Build 0)  -->
<svg version="1.1" id="Layer_1" xmlns="http://www.w3.org/2000/svg" xmlns:xlink="http://www.w3.org/1999/xlink" x="0px" y="0px"
	 viewBox="0 0 512 512" style="enable-background:new 0 0 512 512;" xml:space="preserve">
<g>
	<path d="M256,31c-77.7,0-140.6,63-140.6,140.6C115.4,312.2,256,481,256,481s140.6-168.8,140.6-309.4C396.6,94,333.7,31,256,31z
		 M256,257.8c-47.6,0-86.1-38.6-86.1-86.1s38.6-86.1,86.1-86.1s86.1,38.6,86.1,86.1S303.6,257.8,256,257.8z M201.5,171.6
		c0-30.1,24.4-54.5,54.5-54.5s54.5,24.4,54.5,54.5c0,30.1-24.4,54.5-54.5,54.5S201.5,201.7,201.5,171.6z"/>
</g>
</svg>
